<?xml version="1.0" encoding="utf-8"?>
<!-- Generator: Adobe Illustrator 24.0.2, SVG Export Plug-In . SVG Version: 6.00 Build 0)  -->
<svg version="1.1" id="Layer_1" xmlns="http://www.w3.org/2000/svg" xmlns:xlink="http://www.w3.org/1999/xlink" x="0px" y="0px"
	 viewBox="0 0 398.3 415.1" style="enable-background:new 0 0 398.3 415.1;" xml:space="preserve">
<style type="text/css">
	.st0{fill:#E0E0E0;}
	.st1{fill:#FAFAFA;}
	.st2{fill:#F5F5F5;}
	.st3{fill:#EBEBEB;}
	.st4{fill:#455A64;}
	.st5{fill:#263238;}
	.st6{fill:#0061F2;}
</style>
<g id="background-complete--inject-433">
	<rect x="36.6" y="10.3" class="st0" width="159.9" height="200.9"/>
	<rect x="42.4" y="16" class="st1" width="149.2" height="189.4"/>
	<polygon class="st2" points="42.4,155.5 72.5,155.5 76.3,173.1 89.4,173.1 100.5,122.9 137.6,122.9 137.6,88.6 164.6,88.6 
		164.6,145.9 191.7,145.9 191.7,205.5 42.4,205.5 	"/>
	<rect x="114.6" y="16" class="st0" width="4.8" height="187.9"/>
	<rect x="42.4" y="107.8" class="st0" width="149.2" height="4.9"/>
	<polygon class="st0" points="348.4,63.8 358,88.4 352,88.4 347.2,73.3 	"/>
	<polygon class="st3" points="315.6,41.1 312.3,88.2 346.4,88.9 350.2,41.1 	"/>
	<polygon class="st1" points="319,44.9 316.3,84.1 341.6,85.3 345.1,44.7 	"/>
	<polygon class="st0" points="324.6,50.5 322.5,78 336.5,78 338.9,50.5 	"/>
	<polygon class="st3" points="265,88.6 265,49.9 293.3,49.9 293.3,88.5 	"/>
	<path class="st0" d="M281.1,49.9c0,0,6.8-49.9,4.9-49.9s-6.7,45.5-6.7,45.5s-0.2-37.7-2-37.5s0,39.9,0,39.9s-3.1-32.2-4.7-31.4
		c-1.7,0.8,0.7,33.3,0.7,33.3L281.1,49.9"/>
	<path class="st3" d="M276,49.9c0,0,2.4-24.9,3.1-23.2s0,14.8,0,14.8s6.6-32.1,8.3-31.1s-6.7,34.9-6.7,34.9s6.4-19.3,7.8-17.3
		s-5.3,20.1-5.3,20.1s6.9-12.8,7.3-11.1s-3.3,12.7-3.3,12.7L276,49.9z"/>
	<path class="st3" d="M271.9,50c0,0-15.1-29.7-13.3-28.8s11.6,20.1,11.6,20.1s-6.4-18.5-5-19.1s8.4,20.8,8.4,20.8l1.6,7H271.9z"/>
	<polygon class="st0" points="278.1,49.9 278.8,88.6 265.4,88.6 265.1,49.8 	"/>
	<polygon class="st2" points="265,53.3 278.1,53.5 293.3,53.3 293.8,49.6 264.7,49.6 	"/>
	<rect x="240.7" y="87.9" class="st0" width="141.7" height="6.2"/>
</g>
<g id="Device--inject-433">
	<path class="st4" d="M267.2,312.1c-1.2-1.3,1.6-9.1,15.1-9.6s18.8,4.3,18.8,9.6C301.1,314.4,267.2,312.1,267.2,312.1z"/>
	<polygon class="st2" points="260.6,108.8 245.7,201.1 381.9,201.1 398.3,107.8 	"/>
	<path class="st0" d="M259.2,117.2c0.1-0.3,137.6-0.5,137.6-0.5l1.6-8.9l-137.8,1L259.2,117.2"/>
	<path class="st5" d="M266.3,112.9c0,0.7-0.6,1.3-1.3,1.3s-1.3-0.6-1.3-1.3c0-0.7,0.6-1.3,1.3-1.3l0,0
		C265.8,111.7,266.3,112.2,266.3,112.9L266.3,112.9z"/>
	<path class="st5" d="M272.5,112.9c0,0.7-0.6,1.3-1.3,1.3c-0.7,0-1.3-0.6-1.3-1.3s0.6-1.3,1.3-1.3S272.5,112.2,272.5,112.9
		L272.5,112.9z"/>
	<path class="st5" d="M278.7,112.9c0,0.7-0.6,1.3-1.3,1.3s-1.3-0.6-1.3-1.3c0-0.7,0.6-1.3,1.3-1.3l0,0
		C278.2,111.7,278.7,112.2,278.7,112.9L278.7,112.9z"/>
	<path class="st6" d="M294.1,158.6L277,178.3c-6.5-4.4-10.5-11.8-10.6-19.7c0-13.7,12.5-25,27.7-25s27.7,11.3,27.7,25H294.1z"/>
	<path class="st5" d="M296.3,161.8c-0.1,0.1-0.2,0.3-0.3,0.4l-0.9,1.1l-3.4,4c-2.9,3.4-7.1,8.3-12.1,14.1V181
		c3.8,2.6,8.1,4.2,12.7,4.7c5.1,0.6,10.4-0.2,15.1-2.3c4.5-2,8.4-5.1,11.3-9.1c1.3-1.9,2.3-3.9,3.1-6.1c0.7-2,1.1-4.1,1.2-6.2
		l0.2,0.2l-19.5-0.3l-5.5-0.1l-1.5-0.1C296.6,161.9,296.5,161.9,296.3,161.8c0.1,0.1,0.3,0.1,0.5,0.1h1.4h5.5l19.6,0.1h0.2v0.2
		c-0.1,2.2-0.5,4.3-1.2,6.3c-0.8,2.2-1.8,4.3-3.1,6.2c-2.9,4.1-6.9,7.4-11.6,9.4c-4.8,2.1-10.1,2.9-15.4,2.3
		c-4.6-0.5-9.1-2.2-12.9-4.9l-0.2-0.1l0.2-0.2l12.3-14.1l3.5-3.9l0.9-1C296.1,162.1,296.2,161.9,296.3,161.8z"/>
	<circle class="st5" cx="305.9" cy="143.8" r="1.5"/>
	<path class="st5" d="M338.2,132.4c-0.5,0.1-1,0.1-1.5,0.1l-4,0.1c-3.4,0-8,0.1-13.1,0.1h-2.4l0.2-0.1c-3.2,3.2-6.1,6-8.1,8
		l-2.5,2.3c-0.3,0.3-0.6,0.6-0.9,0.8c0.2-0.3,0.5-0.6,0.8-0.9c0.6-0.6,1.4-1.5,2.3-2.4c2-2.1,4.8-4.9,8-8.1l0.1-0.1h2.6
		c5.1,0,9.7,0,13.1,0.1l4,0.1C337.3,132.3,337.8,132.4,338.2,132.4z"/>
	<path class="st5" d="M373.3,151.9c0-0.2,0-0.4,0.1-0.5c0.1-0.4,0.1-0.9,0.2-1.5l1-5.6l3.6-20.1l0.2,0.2l-38.7,0.1l0.2-0.2l0,0v0.1
		v0.1v0.2l-0.1,0.5l-0.2,0.9l-0.3,1.8c-0.2,1.2-0.5,2.4-0.7,3.6c-0.4,2.4-0.9,4.8-1.3,7.1c-0.9,4.6-1.7,9-2.5,13.2l-0.2-0.3
		l27.9,0.1l8,0.1h2.1L373.3,151.9l0.1-0.1L373.3,151.9l-0.6-0.1h-2.1l-7.9,0.1l-28,0.1h-0.3v-0.3c0.8-4.2,1.6-8.6,2.4-13.2
		c0.4-2.3,0.9-4.7,1.3-7.1c0.2-1.2,0.5-2.4,0.7-3.6c0.1-0.6,0.2-1.2,0.3-1.8l0.2-0.9l0.1-0.5v-0.2v-0.1v-0.1l0,0l0.3-0.2l38.7,0.1
		h0.1v0.2c-1.6,8.4-2.9,15.3-3.8,20.1c-0.5,2.4-0.8,4.2-1.1,5.5l-0.3,1.4C373.4,151.8,373.3,151.9,373.3,151.9z"/>
	<circle class="st5" cx="308.3" cy="175" r="1.5"/>
	<path class="st5" d="M336.5,175c0,0.1-6.3,0.3-14.1,0.3s-14.1-0.1-14.1-0.3s6.3-0.3,14.1-0.3S336.5,174.8,336.5,175z"/>
	<path class="st5" d="M373.3,187c0-0.1,0-0.3,0.1-0.4c0.1-0.3,0.1-0.6,0.2-1.1c0.2-1,0.6-2.3,1-4.1c0.9-3.5,2.1-8.6,3.6-14.8
		l0.2,0.2l-39.9,0.1l0.2-0.2l0,0v0.1v0.1v0.2l-0.1,0.3l-0.2,0.7l-0.3,1.3c-0.2,0.9-0.5,1.8-0.7,2.6l-1.4,5.2
		c-0.9,3.4-1.7,6.7-2.5,9.8l-0.2-0.3l28.6,0.1l8.3,0.1h2.2h0.6L373.3,187h-0.2h-0.6h-2.2l-8.2,0.1l-28.8,0.1H333l0.1-0.3
		c0.8-3.1,1.6-6.4,2.5-9.8c0.4-1.7,0.9-3.4,1.3-5.2l0.7-2.6l0.3-1.3l0.2-0.7l0.1-0.3v-0.2v-0.1v-0.1l0,0l0.2-0.2l39.9,0.1h0.4
		l-0.1,0.2c-1.6,6.2-2.9,11.3-3.9,14.9c-0.5,1.7-0.8,3.1-1.1,4c-0.1,0.4-0.2,0.8-0.3,1S373.3,187.1,373.3,187z"/>
	<path class="st5" d="M370.2,132.8c0,0.1-5.9,0.3-13.2,0.3s-13.2-0.1-13.2-0.3s5.9-0.3,13.2-0.3S370.2,132.7,370.2,132.8z"/>
	<path class="st5" d="M369.9,137.1c0,0.1-6,0.3-13.3,0.3s-13.3-0.1-13.3-0.3s6-0.3,13.3-0.3S369.9,137,369.9,137.1z"/>
	<path class="st5" d="M369.1,141.4c0,0.1-5.8,0.3-12.9,0.3s-12.9-0.1-12.9-0.3s5.8-0.3,12.9-0.3S369.1,141.2,369.1,141.4z"/>
	<path class="st5" d="M369.6,174.5c0,0.1-5.6,0.3-12.6,0.3s-12.6-0.1-12.6-0.3s5.7-0.3,12.6-0.3S369.6,174.4,369.6,174.5z"/>
	<path class="st5" d="M368,179.3c0,0.1-4.8,0.3-10.8,0.3s-10.8-0.1-10.8-0.3s4.8-0.3,10.8-0.3S368,179.1,368,179.3z"/>
	<path class="st4" d="M207.1,279.8c-0.5,2.8-13.8,32.3-5.2,32.3h43.3c0,0-4.5-4.2,9.1-32.3H207.1z"/>
	<polygon class="st4" points="179.1,181.2 161.4,284.6 310.6,284.6 328.9,177.6 	"/>
	<polygon class="st1" points="184.2,186.3 169.2,278.5 305.5,278.5 321.9,185.3 	"/>
	<polygon class="st5" points="328.9,177.6 331.7,179.5 312.7,287.4 165.3,287.4 161.4,284.6 310.6,284.6 	"/>
	<path class="st3" d="M182.8,194.7c0.1-0.3,137.5-0.5,137.5-0.5l1.6-8.9l-137.8,1L182.8,194.7"/>
	<path class="st5" d="M284,270.4v-0.3l0.1-0.8c0.1-0.7,0.3-1.7,0.5-3c0.5-2.7,1.1-6.5,2-11.3c1.7-9.7,4.1-23.2,6.8-38.5v-0.2h11.3
		v0.3c-4.2,22.6-7.8,42.4-9.9,53.8v0.1h-0.1l-7.8-0.1h-2h-0.5h0.5h2.1l7.8-0.1l-0.1,0.1l9.7-53.9l0.3,0.3H294l0.2-0.2
		c-2.8,15.2-5.2,28.6-7,38.3c-0.9,4.8-1.6,8.7-2.1,11.4c-0.2,1.3-0.4,2.3-0.6,3.1c-0.1,0.3-0.1,0.6-0.2,0.8
		C284,270.3,284,270.3,284,270.4z"/>
	<path class="st5" d="M266.7,270.4c0-0.2,0.1-0.5,0.1-0.7c0.1-0.5,0.2-1.2,0.4-2.1c0.4-1.9,0.9-4.7,1.5-8c1.3-6.9,3.1-16.6,5.2-27.6
		v-0.2h11.3l-0.1,0.3c-3.2,15.7-6,29.6-7.8,38.4v0.1h-0.1l-7.8-0.1h-2C267.2,270.5,267,270.5,266.7,270.4l0.7,0.1h2.1l7.7-0.1
		l-0.2,0.1c1.7-8.8,4.5-22.8,7.6-38.5l0.2,0.3H274l0.2-0.2c-2.2,10.9-4.1,20.5-5.4,27.3c-0.7,3.4-1.2,6.1-1.6,8.1l-0.5,2.2
		C266.9,270,266.8,270.2,266.7,270.4L266.7,270.4z"/>
	<path class="st5" d="M249.4,270.4c0-0.1,0-0.2,0-0.3l0.2-1c0.1-0.9,0.4-2.1,0.6-3.8c0.6-3.3,1.4-8.1,2.5-14
		c2.1-12,5.1-28.6,8.4-47.4v-0.2h11.3v0.3c-5.2,28.6-9.8,53.5-12.3,66.4v0.1H260l-7.9-0.1h-2L249.4,270.4h0.7h2l7.8-0.1l-0.1,0.1
		c2.3-13,6.8-37.9,12-66.5l0.3,0.3h-10.7l0.2-0.2c-3.4,18.7-6.4,35.3-8.6,47.2c-1.1,5.9-2,10.7-2.6,14l-0.7,3.8
		c-0.1,0.4-0.1,0.8-0.2,1L249.4,270.4z"/>
	<path class="st5" d="M232.1,270.4c0-0.2,0-0.3,0.1-0.5c0.1-0.4,0.1-0.9,0.2-1.5c0.2-1.4,0.6-3.3,1-5.7c0.9-5,2.1-11.8,3.5-19.8
		v-0.2h11.2L248,243c-2.1,10.8-3.9,20.5-5.2,27.4v0.1h-0.1l-7.8-0.1l-2.1-0.1C232.5,270.4,232.3,270.4,232.1,270.4h0.7h2.1l7.7-0.1
		l-0.2,0.1c1.3-6.9,3.1-16.6,5.1-27.4l0.3,0.3h-10.7l0.2-0.2c-1.5,7.9-2.8,14.6-3.7,19.5c-0.5,2.4-0.8,4.3-1.1,5.7
		c-0.1,0.6-0.2,1.1-0.3,1.5C232.2,270,232.1,270.2,232.1,270.4z"/>
	<path class="st5" d="M214.7,270.4c0,0,0-0.1,0-0.2s0-0.4,0.1-0.6c0.1-0.6,0.2-1.5,0.4-2.5c0.4-2.2,0.9-5.5,1.5-9.5
		c1.4-8.1,3.2-19.5,5.4-32.3v-0.2h11.3l-0.1,0.3c-3.3,18.6-6.2,35.1-8,45.1v0.1h-0.1l-7.8-0.1h-2
		C215.1,270.4,214.9,270.4,214.7,270.4l0.2,0.1h0.5h2.1l7.7-0.1l-0.1,0.1l7.8-45.2l0.3,0.3h-10.7l0.2-0.2c-2.2,12.8-4.2,24-5.6,32.1
		c-0.7,4-1.3,7.2-1.7,9.5c-0.2,1.1-0.4,2-0.5,2.6L214.7,270.4L214.7,270.4z"/>
	<path class="st5" d="M197.4,270.4c0-0.1,0-0.2,0-0.3c0-0.2,0.1-0.5,0.1-0.9c0.1-0.8,0.3-2,0.6-3.4c0.5-3,1.3-7.4,2.2-12.8
		c1.9-11,4.6-26.2,7.6-43.4v-0.2h11.3v0.3c-4.7,25.9-8.8,48.6-11.1,60.8v0.1H208l-7.9-0.1h-2h-0.5h0.5h2.1l7.8-0.1l-0.1,0.1
		c2.1-12.2,6.1-34.9,10.8-60.8l0.2,0.3h-10.7l0.2-0.2c-3.1,17.2-5.8,32.3-7.7,43.2c-1,5.4-1.8,9.8-2.4,12.8
		c-0.3,1.5-0.5,2.7-0.6,3.5c-0.1,0.4-0.1,0.7-0.2,0.9S197.4,270.4,197.4,270.4z"/>
	<path class="st5" d="M189.9,190.4c0,0.7-0.6,1.3-1.3,1.3s-1.3-0.6-1.3-1.3s0.6-1.3,1.3-1.3l0,0
		C189.3,189.2,189.9,189.7,189.9,190.4z"/>
	<circle class="st5" cx="194.9" cy="190.4" r="1.3"/>
	<path class="st5" d="M202.3,190.4c0,0.7-0.6,1.3-1.3,1.3s-1.3-0.6-1.3-1.3s0.6-1.3,1.3-1.3l0,0
		C201.8,189.2,202.3,189.7,202.3,190.4z"/>
	<path class="st5" d="M180.1,270.4c0,0,0-0.3,0.1-0.8s0.2-1.3,0.4-2.3c0.4-2,0.8-4.9,1.4-8.5c1.3-7.3,3.1-17.5,5.1-29.2v-0.2h11.3
		l-0.1,0.3c-3.1,16.7-5.8,31.4-7.6,40.7v0.1h-0.1l-7.8-0.1h-2C180.6,270.4,180.4,270.4,180.1,270.4l0.2,0.1h0.5h2.1l7.7-0.1
		l-0.2,0.1l7.4-40.7l0.2,0.3h-10.8l0.2-0.2c-2.1,11.5-4,21.7-5.3,28.9c-0.7,3.6-1.2,6.5-1.6,8.6c-0.2,1-0.3,1.8-0.4,2.3L180.1,270.4
		C180.2,270.3,180.1,270.3,180.1,270.4z"/>
	<polygon class="st6" points="297,229.7 239.9,229.7 243.2,210.5 300.7,210.5 	"/>
	<path class="st6" d="M239.9,229.7l-1.1,6.7c0,0,7.5-7,7.4-7H240"/>
	<path class="st1" d="M292.1,217.2c0,0.1-9.5,0.3-21.2,0.3s-21.2-0.1-21.2-0.3s9.5-0.3,21.2-0.3S292.1,217,292.1,217.2z"/>
	<path class="st1" d="M291.5,221.8c0,0.1-9.5,0.3-21.2,0.3s-21.2-0.1-21.2-0.3s9.5-0.3,21.2-0.3S291.5,221.6,291.5,221.8z"/>
</g>
<g id="Desk--inject-433">
	<rect x="222.2" y="318.7" class="st5" width="162.6" height="94.9"/>
	<rect x="222.2" y="318.7" class="st4" width="74.1" height="94.9"/>
	<path class="st5" d="M288.7,350.9c0,0,0-0.2,0-0.5s0-0.8,0-1.4c0-1.2,0-3,0-5.3c0-4.6,0-11.1-0.1-19.2l0.2,0.2l-59.6,0.1
		c-0.2,0.2,0.3-0.3,0.3-0.2l0,0v6.9c0,2.3,0,4.5,0,6.7c0,4.4,0,8.7,0,12.8l-0.2-0.2l42.7,0.1l12.4,0.1h3.3h0.9L288.7,350.9
		c0-0.1-0.1-0.1-0.2-0.1h-0.8h-3.3l-12.3,0.1l-42.9,0.1H229v-0.2c0-4.1,0-8.4,0-12.8v-13.4l0,0c-0.1,0,0.5-0.5,0.3-0.3h59.5h0.2v0.2
		c0,8.1-0.1,14.8-0.1,19.4c0,2.2,0,4,0,5.2c0,0.6,0,1,0,1.4C288.8,350.6,288.8,350.8,288.7,350.9z"/>
	<path class="st5" d="M261.5,337.8c0,0-0.1-0.2-0.2-0.6c-0.2-0.5-0.5-1-0.9-1.3c-0.6-0.5-1.5-0.6-2.2-0.3c-1.2,0.4-1.8,1.8-1.4,3
		c0.2,0.6,0.7,1.1,1.4,1.4c0.7,0.3,1.6,0.2,2.2-0.3c0.4-0.3,0.8-0.8,0.9-1.3C261.4,338,261.5,337.8,261.5,337.8s0.1,0.2,0,0.6
		c-0.1,0.6-0.4,1.1-0.9,1.5c-0.7,0.6-1.7,0.8-2.6,0.5c-1.4-0.5-2.2-2.1-1.7-3.5c0.3-0.8,0.9-1.4,1.7-1.7c0.9-0.3,1.9-0.1,2.6,0.4
		c0.5,0.4,0.8,0.9,0.9,1.5C261.6,337.5,261.5,337.8,261.5,337.8z"/>
	<path class="st5" d="M288.7,380c0,0,0-0.2,0-0.5s0-0.8,0-1.4c0-1.2,0-3,0-5.3c0-4.6,0-11.1-0.1-19.2l0.2,0.2l-59.6,0.1l0.3-0.3l0,0
		v6.9c0,2.3,0,4.5,0,6.7c0,4.4,0,8.7,0,12.8l-0.2-0.2l42.7,0.1l12.4,0.1h3.3h0.9C288.6,379.9,288.7,379.9,288.7,380l-0.2-0.1h-0.8
		h-3.3l-12.3,0.1l-42.9,0.1H229v-0.2c0-4.1,0-8.4,0-12.8v-13.4l0,0l0.3-0.3l59.6,0.1h0.2v0.2c0,8.1-0.1,14.8-0.1,19.3
		c0,2.2,0,4,0,5.2c0,0.6,0,1,0,1.3C288.8,379.7,288.8,379.8,288.7,380z"/>
	<path class="st5" d="M261.5,366.8c0,0-0.1-0.2-0.2-0.6c-0.2-0.5-0.5-1-0.9-1.3c-0.6-0.5-1.5-0.6-2.2-0.3c-1.2,0.4-1.8,1.8-1.4,3
		c0.2,0.6,0.7,1.1,1.4,1.4c0.7,0.3,1.6,0.2,2.2-0.3c0.4-0.3,0.8-0.8,0.9-1.3C261.4,367,261.5,366.8,261.5,366.8s0.1,0.2,0,0.6
		c-0.1,0.6-0.4,1.1-0.9,1.5c-0.7,0.6-1.7,0.8-2.6,0.4c-1.4-0.5-2.2-2.1-1.7-3.5c0.3-0.8,0.9-1.4,1.7-1.7c0.9-0.3,1.9-0.1,2.6,0.5
		c0.5,0.4,0.8,0.9,0.9,1.5C261.6,366.5,261.5,366.8,261.5,366.8z"/>
	<path class="st5" d="M288.7,409c0,0,0-0.2,0-0.5s0-0.8,0-1.4c0-1.2,0-3,0-5.3c0-4.6,0-11.1-0.1-19.2l0.2,0.2l-59.6,0.1
		c-0.2,0.2,0.3-0.3,0.3-0.2l0,0v6.9c0,2.3,0,4.5,0,6.7c0,4.4,0,8.7,0,12.8l-0.2-0.2L272,409l12.4,0.1h3.3h0.9L288.7,409
		c0-0.1-0.1-0.1-0.2-0.1h-0.8h-3.3l-12.3,0.1l-42.9,0.1H229v-0.2c0-4.1,0-8.4,0-12.8v-13.4l0,0c-0.1,0,0.5-0.5,0.3-0.3l59.6,0.1h0.2
		v0.2c0,8.1-0.1,14.8-0.1,19.4c0,2.2,0,4,0,5.2c0,0.6,0,1,0,1.4C288.8,408.7,288.8,408.8,288.7,409z"/>
	<path class="st5" d="M261.5,395.8c0,0-0.1-0.2-0.2-0.6c-0.2-0.5-0.5-1-0.9-1.3c-0.6-0.5-1.5-0.6-2.2-0.3c-1.2,0.4-1.8,1.8-1.4,3
		c0.2,0.6,0.7,1.1,1.4,1.4c0.7,0.3,1.6,0.2,2.2-0.3c0.4-0.3,0.8-0.8,0.9-1.3C261.4,396,261.5,395.8,261.5,395.8s0.1,0.2,0,0.6
		c-0.1,0.6-0.4,1.1-0.9,1.5c-0.7,0.6-1.7,0.7-2.6,0.4c-1.4-0.5-2.2-2.1-1.7-3.5c0.3-0.8,0.9-1.4,1.7-1.7c0.9-0.3,1.9-0.1,2.6,0.4
		c0.5,0.4,0.8,0.9,0.9,1.5C261.6,395.6,261.5,395.8,261.5,395.8z"/>
	<rect x="5.2" y="318.7" class="st5" width="136.8" height="94.9"/>
	<rect y="312.1" class="st5" width="390.8" height="9"/>
	<rect x="5.2" y="321.1" class="st4" width="12.1" height="92.5"/>
</g>
</svg>
